<?xml version="1.0" standalone="no"?>
<!DOCTYPE svg PUBLIC "-//W3C//DTD SVG 20010904//EN"
 "http://www.w3.org/TR/2001/REC-SVG-20010904/DTD/svg10.dtd">
<svg version="1.0" xmlns="http://www.w3.org/2000/svg"
 width="100.000000pt" height="100.000000pt" viewBox="0 0 100.000000 100.000000"
 preserveAspectRatio="xMidYMid meet">

<g transform="translate(0.000000,100.000000) scale(0.100000,-0.100000)"
fill="#000000" stroke="none">
<path d="M102 894 c-20 -13 -22 -24 -22 -96 0 -45 -5 -97 -12 -115 -10 -27
-10 -38 0 -53 7 -12 12 -56 12 -110 l0 -90 39 0 c49 0 87 -19 83 -42 -5 -24
-78 -25 -104 -1 -10 9 -18 11 -18 5 0 -18 36 -32 84 -32 26 0 46 -5 48 -12 3
-9 36 -15 94 -19 76 -5 68 -6 -49 -5 -117 1 -137 -1 -135 -14 3 -12 27 -16
123 -20 68 -3 115 -9 107 -13 -19 -13 -256 -6 -264 7 -5 6 -8 1 -8 -11 0 -17
6 -23 23 -24 12 -1 92 -5 177 -9 l155 -6 -165 -2 c-93 -1 -159 -6 -152 -11 10
-6 5 -11 -17 -20 -16 -7 -34 -10 -40 -7 -5 3 -12 0 -15 -6 -3 -7 -4 2 -3 20 4
36 -9 31 -15 -7 -2 -17 5 -30 25 -45 27 -20 40 -21 261 -21 206 0 235 2 259
18 27 18 28 17 57 -5 36 -29 37 -36 2 -41 -15 -2 34 -4 108 -5 74 0 124 3 110
7 l-25 7 26 17 c33 22 69 87 69 126 0 23 4 31 18 31 20 0 45 24 54 50 10 27
-11 61 -47 76 -32 13 -35 18 -35 57 0 23 -3 51 -6 62 -3 14 2 23 18 30 14 6
24 20 26 38 4 31 -13 37 -21 7 -7 -28 -37 -26 -38 3 -1 18 -2 18 -6 4 -5 -18
-5 -18 -25 0 -20 18 -19 18 48 24 65 5 63 6 -34 7 -80 2 -101 5 -96 15 5 7 0
6 -11 -3 -17 -14 -18 -14 -6 8 11 20 19 22 101 22 49 0 91 3 93 8 3 4 8 28 11
55 l7 47 -120 0 c-82 0 -120 3 -119 11 4 16 -27 33 -46 26 -21 -8 -12 -27 13
-27 12 0 22 -16 35 -56 20 -64 15 -104 -13 -104 -11 0 -25 -2 -33 -5 -7 -3
-17 5 -23 17 -6 13 -29 32 -52 43 -26 12 -43 26 -43 37 0 24 19 33 37 16 17
-18 63 -12 63 9 0 7 -13 22 -30 31 -16 9 -30 23 -30 30 0 6 -7 12 -15 12 -8 0
-15 -7 -15 -15 0 -8 -7 -15 -15 -15 -26 0 -55 -42 -55 -81 0 -41 9 -51 62 -68
35 -12 54 -34 42 -52 -8 -13 -38 -11 -52 3 -9 9 -12 8 -12 -8 0 -11 -5 -25
-12 -32 -9 -9 -7 -12 10 -12 21 0 41 -24 30 -36 -7 -7 -58 17 -58 28 0 4 -12
8 -26 8 -14 0 -34 5 -45 10 -22 12 -59 80 -59 110 0 11 -9 25 -20 32 -12 8
-20 24 -20 40 0 37 -39 62 -85 55 -28 -5 -74 -23 -138 -55 -4 -2 -7 20 -5 49
l3 54 358 3 c368 2 363 3 358 -35 -1 -7 7 -13 19 -13 17 0 20 6 20 40 0 29 -5
42 -19 50 -13 6 -150 10 -378 10 -308 0 -362 -2 -381 -16z m666 -127 c5 -24
-15 -21 -21 4 -3 13 -1 19 6 16 7 -2 13 -11 15 -20z m46 7 c4 -9 4 -19 2 -22
-10 -9 -36 8 -36 23 0 20 26 19 34 -1z m46 12 c0 -2 3 -11 6 -20 4 -12 0 -16
-15 -16 -14 0 -21 6 -21 20 0 11 7 20 15 20 8 0 15 -2 15 -4z m60 -16 c0 -13
-7 -20 -20 -20 -13 0 -20 7 -20 20 0 13 7 20 20 20 13 0 20 -7 20 -20z m33 0
c-3 -11 -9 -20 -14 -20 -5 0 -9 9 -9 20 0 11 6 20 14 20 9 0 12 -7 9 -20z
m-738 -7 c-16 -9 -34 -21 -40 -28 -5 -6 -27 -23 -47 -39 -24 -17 -38 -35 -38
-49 -1 -20 -2 -20 -11 -5 -12 21 -2 43 33 74 29 27 98 64 118 64 8 -1 2 -8
-15 -17z m565 -51 c0 -15 -2 -15 -10 -2 -13 20 -13 33 0 25 6 -3 10 -14 10
-23z m48 5 c2 -10 -3 -17 -11 -17 -16 0 -30 24 -19 34 10 10 27 1 30 -17z m42
1 c0 -11 -5 -18 -12 -16 -19 7 -21 35 -3 35 8 0 15 -9 15 -19z m43 -4 c-6 -17
-23 -9 -23 11 0 8 6 12 14 9 8 -3 12 -12 9 -20z m-684 -54 c-31 -16 -71 -43
-88 -60 -19 -19 -31 -26 -31 -17 0 8 8 21 18 30 26 24 124 77 142 76 8 0 -10
-13 -41 -29z m97 -35 c22 -33 11 -57 -39 -85 -23 -12 -57 -34 -75 -47 -18 -14
-35 -23 -36 -22 -10 12 -36 70 -36 82 0 16 47 52 103 78 55 24 63 24 83 -6z
m406 -20 c-2 -19 -8 -38 -13 -41 -12 -7 -11 -81 1 -123 l9 -34 -42 6 c-23 2
-51 8 -62 11 -11 3 -6 0 10 -8 63 -31 132 -30 233 0 9 3 4 -2 -12 -11 -37 -22
-130 -30 -180 -16 -22 6 -42 9 -44 6 -8 -8 18 -166 33 -195 8 -16 28 -36 43
-44 36 -20 9 -20 -29 0 -19 10 -39 33 -52 62 -19 41 -22 64 -22 192 0 161 6
179 68 212 51 27 64 24 59 -17z m77 3 c33 -35 39 -50 19 -45 -6 1 -17 -16 -24
-38 l-12 -40 -1 32 c-1 21 -8 37 -21 45 -13 9 -20 24 -20 45 0 43 20 43 59 1z
m-67 -93 c-2 -19 -6 -35 -8 -35 -2 0 -4 16 -4 35 0 19 4 35 8 35 4 0 6 -16 4
-35z m-451 -5 c-66 -37 -91 -58 -91 -79 0 -12 -3 -12 -12 -3 -16 16 19 51 86
86 68 36 83 32 17 -4z m-151 0 c9 -16 8 -20 -5 -20 -8 0 -15 9 -15 20 0 11 2
20 5 20 2 0 9 -9 15 -20z m430 0 c13 -9 13 -10 0 -9 -8 0 -24 4 -35 9 l-20 9
20 0 c11 0 27 -4 35 -9z m-235 -47 c-58 -30 -105 -70 -105 -92 0 -11 -3 -12
-11 -4 -19 19 12 55 77 91 33 17 66 31 74 31 8 0 -7 -11 -35 -26z m448 -10
c-10 -28 -33 -59 -33 -45 0 12 29 62 36 62 2 0 1 -8 -3 -17z m-229 -33 c16 -6
26 -17 26 -30 0 -19 -6 -20 -92 -20 l-92 0 34 30 c37 31 78 38 124 20z m396
-20 c13 -9 13 -10 0 -10 -8 0 -22 5 -30 10 -13 9 -13 10 0 10 8 0 22 -5 30
-10z m-530 -50 c0 -5 -18 -10 -41 -10 -24 0 -38 4 -34 10 3 6 22 10 41 10 19
0 34 -4 34 -10z m160 3 c0 -5 -5 -15 -10 -23 -8 -12 -10 -11 -10 8 0 12 5 22
10 22 6 0 10 -3 10 -7z m-97 -20 c-7 -2 -19 -2 -25 0 -7 3 -2 5 12 5 14 0 19
-2 13 -5z"/>
<path d="M447 753 c-4 -3 -7 -11 -7 -17 0 -7 3 -7 8 0 4 7 16 14 27 17 19 5
19 5 -1 6 -11 0 -24 -2 -27 -6z"/>
<path d="M461 647 c2 -1 13 -9 24 -17 19 -14 19 -14 6 3 -7 9 -18 17 -24 17
-6 0 -8 -1 -6 -3z"/>
<path d="M38 323 c7 -3 16 -2 19 1 4 3 -2 6 -13 5 -11 0 -14 -3 -6 -6z"/>
<path d="M938 143 c6 -2 18 -2 25 0 6 3 1 5 -13 5 -14 0 -19 -2 -12 -5z"/>
</g>
</svg>
