<?xml version="1.0" standalone="no"?>
<!DOCTYPE svg PUBLIC "-//W3C//DTD SVG 20010904//EN"
 "http://www.w3.org/TR/2001/REC-SVG-20010904/DTD/svg10.dtd">
<svg version="1.0" xmlns="http://www.w3.org/2000/svg"
 width="50.000000pt" height="50.000000pt" viewBox="0 0 50.000000 50.000000"
 preserveAspectRatio="xMidYMid meet">

<g transform="translate(0.000000,50.000000) scale(0.100000,-0.100000)"
fill="#000000" stroke="none">
<path d="M93 415 c-70 -30 -91 -114 -49 -199 26 -54 64 -90 159 -155 l47 -32
48 32 c92 63 131 101 157 152 28 58 31 93 11 142 -28 65 -111 92 -178 57 -37
-20 -39 -20 -75 -1 -44 22 -76 23 -120 4z m133 -36 l24 -22 24 22 c32 30 85
37 124 17 65 -34 78 -116 32 -191 -23 -38 -157 -145 -180 -145 -23 0 -157 107
-179 144 -46 73 -36 151 23 188 39 24 98 19 132 -13z"/>
<path d="M320 310 c0 -27 -3 -30 -30 -30 -16 0 -30 -4 -30 -10 0 -5 14 -10 30
-10 27 0 30 -3 30 -30 0 -16 5 -30 10 -30 6 0 10 14 10 30 0 27 3 30 30 30 17
0 30 5 30 10 0 6 -13 10 -30 10 -27 0 -30 3 -30 30 0 17 -4 30 -10 30 -5 0
-10 -13 -10 -30z"/>
</g>
</svg>
